<?xml version="1.0" encoding="utf-8"?>
<!-- Generator: Adobe Illustrator 16.0.0, SVG Export Plug-In . SVG Version: 6.00 Build 0)  -->
<!DOCTYPE svg PUBLIC "-//W3C//DTD SVG 1.1//EN" "http://www.w3.org/Graphics/SVG/1.1/DTD/svg11.dtd">
<svg version="1.1" id="Layer_2" xmlns="http://www.w3.org/2000/svg" xmlns:xlink="http://www.w3.org/1999/xlink" x="0px" y="0px"
	 width="612px" height="792px" viewBox="0 0 612 792" enable-background="new 0 0 612 792" xml:space="preserve">
<g id="XMLID_1_">
	<g>
		<polygon fill="#7AC8A9" points="423,392 423,466 305,540 190,466 190,314 217,296 250,318 279,296 279,377.67 359.33,431.67 		"/>
		<polygon fill="#7AC8A9" points="423,290.33 423,373.67 360.33,415 296.67,373 296.67,289.67 360.33,249 		"/>
		<polygon fill="#7AC8A9" points="368.67,181.34 368.67,218 341.67,235.34 313.33,218 313.33,181.34 341.67,163.34 		"/>
		<polygon fill="#7AC8A9" points="294,213 294,271.67 249,300.33 205.67,271.33 205.67,212 249,184 		"/>
	</g>
	<g>
		<polygon fill="none" stroke="#7AC8A9" stroke-miterlimit="10" points="423,392 423,466 305,540 190,466 190,314 217,296 250,318 
			279,296 279,377.67 359.33,431.67 		"/>
		<polygon fill="none" stroke="#7AC8A9" stroke-miterlimit="10" points="360.33,249 296.67,289.67 296.67,373 360.33,415 
			423,373.67 423,290.33 		"/>
		<polygon fill="none" stroke="#7AC8A9" stroke-miterlimit="10" points="249,300.33 294,271.67 294,213 249,184 205.67,212 
			205.67,271.33 		"/>
	</g>
</g>
</svg>
